<?xml version="1.0" encoding="UTF-8" standalone="no"?>
<svg
   xmlns:dc="http://purl.org/dc/elements/1.1/"
   xmlns:cc="http://creativecommons.org/ns#"
   xmlns:rdf="http://www.w3.org/1999/02/22-rdf-syntax-ns#"
   xmlns:svg="http://www.w3.org/2000/svg"
   xmlns="http://www.w3.org/2000/svg"
   xmlns:sodipodi="http://sodipodi.sourceforge.net/DTD/sodipodi-0.dtd"
   xmlns:inkscape="http://www.inkscape.org/namespaces/inkscape"
   viewBox="0 -256 1850 1850"
   id="svg3025"
   version="1.1"
   inkscape:version="0.48.3.1 r9886"
   width="100%"
   height="100%"
   sodipodi:docname="hospital_font_awesome.svg">
  <metadata
     id="metadata3035">
    <rdf:RDF>
      <cc:Work
         rdf:about="">
        <dc:format>image/svg+xml</dc:format>
        <dc:type
           rdf:resource="http://purl.org/dc/dcmitype/StillImage" />
      </cc:Work>
    </rdf:RDF>
  </metadata>
  <defs
     id="defs3033" />
  <sodipodi:namedview
     pagecolor="#ffffff"
     bordercolor="#666666"
     borderopacity="1"
     objecttolerance="10"
     gridtolerance="10"
     guidetolerance="10"
     inkscape:pageopacity="0"
     inkscape:pageshadow="2"
     inkscape:window-width="640"
     inkscape:window-height="480"
     id="namedview3031"
     showgrid="false"
     inkscape:zoom="0.13169643"
     inkscape:cx="896"
     inkscape:cy="896"
     inkscape:window-x="0"
     inkscape:window-y="25"
     inkscape:window-maximized="0"
     inkscape:current-layer="svg3025" />
  <g
     transform="matrix(1,0,0,-1,235.38983,1313.0508)"
     id="g3027">
    <path
       d="m 384,224 v -64 q 0,-13 -9.5,-22.5 Q 365,128 352,128 h -64 q -13,0 -22.5,9.5 Q 256,147 256,160 v 64 q 0,13 9.5,22.5 9.5,9.5 22.5,9.5 h 64 q 13,0 22.5,-9.5 Q 384,237 384,224 z m 0,256 v -64 q 0,-13 -9.5,-22.5 Q 365,384 352,384 h -64 q -13,0 -22.5,9.5 Q 256,403 256,416 v 64 q 0,13 9.5,22.5 9.5,9.5 22.5,9.5 h 64 q 13,0 22.5,-9.5 Q 384,493 384,480 z m 256,0 v -64 q 0,-13 -9.5,-22.5 Q 621,384 608,384 h -64 q -13,0 -22.5,9.5 Q 512,403 512,416 v 64 q 0,13 9.5,22.5 9.5,9.5 22.5,9.5 h 64 q 13,0 22.5,-9.5 Q 640,493 640,480 z M 384,736 v -64 q 0,-13 -9.5,-22.5 Q 365,640 352,640 h -64 q -13,0 -22.5,9.5 Q 256,659 256,672 v 64 q 0,13 9.5,22.5 9.5,9.5 22.5,9.5 h 64 q 13,0 22.5,-9.5 Q 384,749 384,736 z m 768,-512 v -64 q 0,-13 -9.5,-22.5 Q 1133,128 1120,128 h -64 q -13,0 -22.5,9.5 -9.5,9.5 -9.5,22.5 v 64 q 0,13 9.5,22.5 9.5,9.5 22.5,9.5 h 64 q 13,0 22.5,-9.5 9.5,-9.5 9.5,-22.5 z M 896,480 v -64 q 0,-13 -9.5,-22.5 Q 877,384 864,384 h -64 q -13,0 -22.5,9.5 Q 768,403 768,416 v 64 q 0,13 9.5,22.5 9.5,9.5 22.5,9.5 h 64 q 13,0 22.5,-9.5 Q 896,493 896,480 z M 640,736 v -64 q 0,-13 -9.5,-22.5 Q 621,640 608,640 h -64 q -13,0 -22.5,9.5 Q 512,659 512,672 v 64 q 0,13 9.5,22.5 9.5,9.5 22.5,9.5 h 64 q 13,0 22.5,-9.5 Q 640,749 640,736 z m 512,-256 v -64 q 0,-13 -9.5,-22.5 Q 1133,384 1120,384 h -64 q -13,0 -22.5,9.5 -9.5,9.5 -9.5,22.5 v 64 q 0,13 9.5,22.5 9.5,9.5 22.5,9.5 h 64 q 13,0 22.5,-9.5 9.5,-9.5 9.5,-22.5 z M 896,736 v -64 q 0,-13 -9.5,-22.5 Q 877,640 864,640 h -64 q -13,0 -22.5,9.5 Q 768,659 768,672 v 64 q 0,13 9.5,22.5 9.5,9.5 22.5,9.5 h 64 q 13,0 22.5,-9.5 Q 896,749 896,736 z m 256,0 v -64 q 0,-13 -9.5,-22.5 Q 1133,640 1120,640 h -64 q -13,0 -22.5,9.5 -9.5,9.5 -9.5,22.5 v 64 q 0,13 9.5,22.5 9.5,9.5 22.5,9.5 h 64 q 13,0 22.5,-9.5 9.5,-9.5 9.5,-22.5 z M 896,-128 h 384 v 1152 h -256 v -32 q 0,-40 -28,-68 -28,-28 -68,-28 H 480 q -40,0 -68,28 -28,28 -28,68 v 32 H 128 V -128 H 512 V 96 q 0,13 9.5,22.5 9.5,9.5 22.5,9.5 h 320 q 13,0 22.5,-9.5 Q 896,109 896,96 v -224 z m 0,1184 v 320 q 0,13 -9.5,22.5 -9.5,9.5 -22.5,9.5 h -64 q -13,0 -22.5,-9.5 Q 768,1389 768,1376 v -96 H 640 v 96 q 0,13 -9.5,22.5 -9.5,9.5 -22.5,9.5 h -64 q -13,0 -22.5,-9.5 Q 512,1389 512,1376 v -320 q 0,-13 9.5,-22.5 9.5,-9.5 22.5,-9.5 h 64 q 13,0 22.5,9.5 9.5,9.5 9.5,22.5 v 96 h 128 v -96 q 0,-13 9.5,-22.5 9.5,-9.5 22.5,-9.5 h 64 q 13,0 22.5,9.5 9.5,9.5 9.5,22.5 z m 512,32 V -192 q 0,-26 -19,-45 -19,-19 -45,-19 H 64 q -26,0 -45,19 -19,19 -19,45 v 1280 q 0,26 19,45 19,19 45,19 h 320 v 288 q 0,40 28,68 28,28 68,28 h 448 q 40,0 68,-28 28,-28 28,-68 v -288 h 320 q 26,0 45,-19 19,-19 19,-45 z"
       id="path3029"
       inkscape:connector-curvature="0"
       style="fill:currentColor" />
  </g>
</svg>
